<svg xmlns="http://www.w3.org/2000/svg" xmlns:xlink="http://www.w3.org/1999/xlink" width="38.909" height="23.273" viewBox="0 0 38.909 23.273"><defs><style>.a{fill:url(#a);}.b{fill:#fff;fill-rule:evenodd;}</style><radialGradient id="a" cx="0.03" cy="0" r="1.505" gradientTransform="matrix(0.513, 0.514, -0.307, 0.858, 0.014, -0.015)" gradientUnits="objectBoundingBox"><stop offset="0" stop-color="#5dcaf4"/><stop offset="1" stop-color="#0077c2"/></radialGradient></defs><g transform="translate(0 0)"><rect class="a" width="38.909" height="23.273" rx="2"/><path class="b" d="M37.82,18.321H36.252a.6.6,0,0,0-.348.065.279.279,0,0,0-.126.258.271.271,0,0,0,.188.267.983.983,0,0,0,.332.041l.466.012a1.363,1.363,0,0,1,.976.289.462.462,0,0,1,.08.089Zm0,2.367a1.343,1.343,0,0,1-1.168.459H34.991v-.77h1.655a.491.491,0,0,0,.348-.089.315.315,0,0,0,.1-.234.294.294,0,0,0-.105-.237.438.438,0,0,0-.3-.08c-.808-.027-1.816.025-1.816-1.111,0-.521.332-1.069,1.235-1.069H37.82v-.714H36.228a1.8,1.8,0,0,0-1.077.293v-.293H32.8a1.634,1.634,0,0,0-1.028.293v-.293H27.561v.293a2.244,2.244,0,0,0-1.16-.293H23.627v.293a1.967,1.967,0,0,0-1.213-.293H19.309l-.711.767-.665-.767H13.295v5.009h4.551l.732-.779.69.779,2.805,0V20.676h.276a2.93,2.93,0,0,0,1.2-.176v1.352h2.314V20.547h.112c.142,0,.156.006.156.148v1.158h7.029a2.009,2.009,0,0,0,1.171-.321v.321h2.23a3,3,0,0,0,1.262-.231v-.933Zm-3.432-1.434a1,1,0,0,1,.257.761c0,.772-.484,1.133-1.352,1.133H31.618v-.77h1.669a.507.507,0,0,0,.351-.089.318.318,0,0,0,.1-.234.308.308,0,0,0-.1-.237.454.454,0,0,0-.306-.08c-.8-.027-1.812.025-1.812-1.111,0-.521.328-1.069,1.23-1.069h1.725v.764H32.893a.583.583,0,0,0-.345.065.3.3,0,0,0,.059.526.992.992,0,0,0,.335.041l.463.012a1.391,1.391,0,0,1,.983.289Zm-7.764-.222a.826.826,0,0,1-.425.074H25.153V18.3h1.06a.85.85,0,0,1,.411.065.341.341,0,0,1,.178.323.387.387,0,0,1-.178.345Zm.52.447a.935.935,0,0,1,.422.3,1.043,1.043,0,0,1,.143.655v.712h-.864V20.7c0-.216.021-.536-.139-.7a.836.836,0,0,0-.631-.159h-.92v1.311h-.865v-3.59h1.987a2.136,2.136,0,0,1,1.035.169.84.84,0,0,1,.442.8,1,1,0,0,1-.61.955Zm1.087-1.922H31.1V18.3H29.087v.653h1.966v.732H29.087V20.4l2.015,0v.745H28.23v-3.59Zm-5.805,1.657H21.313V18.3h1.122c.311,0,.526.126.526.44s-.206.474-.536.474Zm-1.969,1.607-1.321-1.462,1.321-1.416v2.878ZM17.044,20.4H14.929v-.714h1.889v-.732H14.929V18.3h2.157l.941,1.046L17.044,20.4Zm6.841-1.659c0,1-.746,1.2-1.5,1.2H21.313v1.2H19.64l-1.06-1.188-1.1,1.188H14.072v-3.59h3.461l1.059,1.177,1.094-1.177h2.749c.683,0,1.45.188,1.45,1.183Z" transform="translate(-3.626 -4.594)"/><path class="b" d="M7.683,11.1,7.094,9.674,6.509,11.1Zm12.974-.57a.8.8,0,0,1-.426.074H19.187v-.8h1.06a.885.885,0,0,1,.408.065.328.328,0,0,1,.181.317.367.367,0,0,1-.177.341Zm7.457.57-.6-1.431L26.927,11.1Zm-13.9,1.549h-.882l0-2.811-1.248,2.811h-.755L10.075,9.84v2.813H8.325l-.331-.8H6.2l-.334.8H4.934L6.475,9.064H7.753l1.463,3.4v-3.4h1.4L11.747,11.5l1.034-2.435h1.433v3.589Zm3.516,0H14.855V9.064H17.73v.747H15.716v.647h1.966v.736H15.716v.717H17.73v.742Zm4.053-2.622a1.011,1.011,0,0,1-.606.957,1,1,0,0,1,.426.3,1.03,1.03,0,0,1,.142.658v.705h-.868l0-.453a1.074,1.074,0,0,0-.136-.7.843.843,0,0,0-.627-.154h-.924v1.305h-.86V9.064h1.979a2.032,2.032,0,0,1,1.042.172.837.837,0,0,1,.435.795Zm1.377,2.622h-.878V9.064h.878v3.589Zm10.186,0H32.126L30.495,9.96v2.694H28.743l-.335-.8H26.62l-.325.8H25.289a1.812,1.812,0,0,1-1.248-.4,1.8,1.8,0,0,1-.46-1.37,1.906,1.906,0,0,1,.464-1.4,1.75,1.75,0,0,1,1.307-.419h.833v.769h-.816a.83.83,0,0,0-.662.213,1.183,1.183,0,0,0-.247.813,1.242,1.242,0,0,0,.237.843.832.832,0,0,0,.6.185h.386L26.9,9.064h1.289l1.457,3.395V9.064h1.31l1.513,2.5v-2.5h.881v3.589Zm-28.421.7h1.47l.331-.8h.742l.331.8h2.893v-.609l.258.612h1.5l.258-.621v.619H19.9l0-1.309h.139c.1,0,.126.012.126.173v1.136h3.718v-.3a2.953,2.953,0,0,0,1.38.3h1.564l.335-.8H27.9l.327.8H31.24V12.6l.456.757h2.415V8.353h-2.39v.591l-.335-.591H28.934v.591l-.307-.591H25.313a2.983,2.983,0,0,0-1.436.292V8.353H21.591v.292a1.42,1.42,0,0,0-.972-.292H12.266l-.56,1.293L11.13,8.353H8.5v.591L8.21,8.353H5.966l-1.042,2.38v2.626Z" transform="translate(-1.343 -2.278)"/></g></svg>