<svg xmlns="http://www.w3.org/2000/svg" width="110.076" height="128" viewBox="0 0 110.076 128"><defs><style>.a{fill:#fff;}.b{fill:#f9b233;}.c{fill:#ececf0;}.d{fill:none;}.e{fill:#dc333d;}.f{fill:#fa9600;}</style></defs><g transform="translate(-35.848)"><rect class="a" width="70.4" height="83.313" transform="translate(38.348 19.343)"/><path class="b" d="M116.249,26.843h-70.4V14.225A4.225,4.225,0,0,1,50.073,10h61.951a4.225,4.225,0,0,1,4.225,4.225Z" transform="translate(-7.5 -7.5)"/><path class="b" d="M45.847,410.624h70.4v18.619a4.225,4.225,0,0,1-4.225,4.225H50.072a4.225,4.225,0,0,1-4.225-4.225V410.624Z" transform="translate(-7.499 -307.968)"/><path class="c" d="M172.149,446.529h0a4.833,4.833,0,0,1-4.833-4.833h0a4.833,4.833,0,0,1,4.833-4.833h0a4.833,4.833,0,0,1,4.833,4.833h0A4.833,4.833,0,0,1,172.149,446.529Z" transform="translate(-98.601 -327.646)"/><path d="M164.649,441.527a7.333,7.333,0,1,1,7.333-7.333A7.342,7.342,0,0,1,164.649,441.527Zm0-9.667a2.333,2.333,0,1,0,2.333,2.333A2.336,2.336,0,0,0,164.649,431.861Z" transform="translate(-91.101 -320.146)"/><path d="M270.591,366a2.461,2.461,0,0,1-.488-.05,2.345,2.345,0,0,1-.467-.142,2.473,2.473,0,0,1-.432-.23,2.421,2.421,0,0,1-.69-.69,2.465,2.465,0,0,1-.23-.432,2.519,2.519,0,0,1-.142-.467,2.4,2.4,0,0,1,0-.975,2.6,2.6,0,0,1,.142-.47,2.527,2.527,0,0,1,.23-.43,2.368,2.368,0,0,1,.31-.38,2.394,2.394,0,0,1,.38-.31,2.316,2.316,0,0,1,.432-.23,2.451,2.451,0,0,1,1.445-.145,2.655,2.655,0,0,1,.467.145,2.37,2.37,0,0,1,.43.23,2.394,2.394,0,0,1,.38.31,2.5,2.5,0,0,1,.543.81,2.6,2.6,0,0,1,.142.47,2.526,2.526,0,0,1,0,.975,2.516,2.516,0,0,1-.142.467,2.481,2.481,0,0,1-.23.432,2.551,2.551,0,0,1-.312.38,2.379,2.379,0,0,1-.38.31,2.536,2.536,0,0,1-.43.23,2.45,2.45,0,0,1-.467.142A2.507,2.507,0,0,1,270.591,366Z" transform="translate(-174.182 -270.749)"/><path d="M123.049,366H87.707a2.5,2.5,0,0,1,0-5h35.341a2.5,2.5,0,0,1,0,5Z" transform="translate(-37.019 -270.75)"/><path d="M169.149,38.687h-10a2.5,2.5,0,0,1,0-5h10a2.5,2.5,0,0,1,0,5Z" transform="translate(-90.601 -25.265)"/><rect class="a" width="69.35" height="9.78" transform="translate(74.074 35.105)"/><path class="d" d="M199.435,179.544l1.462,9.505,1.594,10.366,3.145,20.454h51.606l3.145-20.454,1.594-10.366,1.462-9.505Z" transform="translate(-122.69 -134.658)"/><path class="e" d="M266.367,217.564l-1.594,10.366h-57.9l-1.594-10.366Z" transform="translate(-127.077 -163.173)"/><path d="M143.424,32.6H126.2L120.3,23.986a2.5,2.5,0,0,0-4.125,2.827L120.14,32.6h-8.891V6.725A6.733,6.733,0,0,0,104.524,0H42.573a6.733,6.733,0,0,0-6.725,6.725v114.55A6.733,6.733,0,0,0,42.573,128h61.95a6.733,6.733,0,0,0,6.725-6.725V87.71h23.3a2.5,2.5,0,0,0,2.471-2.12l5.875-38.2h.526a2.5,2.5,0,0,0,2.5-2.5V35.1A2.5,2.5,0,0,0,143.424,32.6Zm-66.85,9.781V37.6h11.3l-3.277,4.781Zm64.35-4.781v4.781H132.9L129.628,37.6Zm-14.081,4.781H90.654L93.931,37.6h29.636Zm-86-35.661A1.727,1.727,0,0,1,42.573,5h61.95a1.727,1.727,0,0,1,1.725,1.725V16.843h-65.4Zm65.4,114.55A1.727,1.727,0,0,1,104.524,123H42.573a1.727,1.727,0,0,1-1.725-1.725V105.156h65.4ZM132.407,82.71H85.09L82.714,67.257h52.069ZM79.659,47.386h58.18l-.693,4.505H80.352Zm1.462,9.5h55.256l-.825,5.366H81.946Zm-.646,28.7a2.5,2.5,0,0,0,2.471,2.12h23.3v12.446h-65.4V21.843h65.4V32.6H97.357l3.969-5.791A2.5,2.5,0,1,0,97.2,23.987L91.3,32.6H74.074a2.5,2.5,0,0,0-2.5,2.5v9.781a2.5,2.5,0,0,0,2.5,2.5H74.6Z"/><path class="f" d="M80.83,151.612V175H74.7L85.574,190.4,96.446,175h-6.13V151.612Z" transform="translate(-29.14 -113.709)"/><path d="M78.074,185.4a2.5,2.5,0,0,1-2.042-1.059L65.159,168.938A2.5,2.5,0,0,1,67.2,165h3.63V144.112a2.5,2.5,0,0,1,2.5-2.5h9.486a2.5,2.5,0,0,1,2.5,2.5V165h3.63a2.5,2.5,0,0,1,2.042,3.941L80.116,184.346A2.5,2.5,0,0,1,78.074,185.4ZM72.025,170l6.049,8.572L84.122,170H82.817a2.5,2.5,0,0,1-2.5-2.5V146.612H75.831V167.5a2.5,2.5,0,0,1-2.5,2.5Z" transform="translate(-21.64 -106.209)"/></g></svg>