<svg xmlns="http://www.w3.org/2000/svg" width="39.273" height="24" viewBox="0 0 39.273 24"><defs><style>.a{fill:#121212;}.b{fill:none;fill-rule:evenodd;}.c{fill:#fff;}.d{fill:#ff5f00;}.e{fill:#eb001b;}.f{fill:#f79e1b;}</style></defs><rect class="a" width="39.273" height="23.273" rx="2" transform="translate(0 0.727)"/><path class="b" d="M7-1H36.052V22.829H7Z" transform="translate(-1.909 1)"/><path class="c" d="M15.766,26.648V25.461a.7.7,0,0,0-.744-.752.732.732,0,0,0-.665.336.7.7,0,0,0-.625-.336.625.625,0,0,0-.554.281v-.233h-.412v1.892h.415V25.607a.444.444,0,0,1,.463-.5c.273,0,.412.178.412.5v1.053h.416V25.607a.445.445,0,0,1,.463-.5c.281,0,.416.178.416.5v1.053l.415-.007Zm6.149-1.892h-.677v-.575h-.415v.575h-.376v.376h.383V26c0,.439.17.7.657.7A.966.966,0,0,0,22,26.557l-.119-.352a.774.774,0,0,1-.364.107c-.2,0-.273-.127-.273-.317v-.863h.673l0-.376Zm3.511-.047a.558.558,0,0,0-.5.276v-.229h-.407v1.892h.412v-1.06c0-.313.135-.487.4-.487a.671.671,0,0,1,.257.048l.127-.4a.88.88,0,0,0-.293-.051l.007.007Zm-5.308.2a1.415,1.415,0,0,0-.772-.2c-.479,0-.792.229-.792.605,0,.309.23.5.653.559l.2.028c.225.031.332.091.332.2,0,.146-.15.229-.431.229a1.007,1.007,0,0,1-.629-.2l-.2.321a1.361,1.361,0,0,0,.819.245c.546,0,.863-.257.863-.617s-.249-.507-.662-.567l-.2-.028c-.178-.023-.321-.059-.321-.186s.135-.221.36-.221a1.214,1.214,0,0,1,.593.162l.182-.332Zm11.025-.2a.558.558,0,0,0-.5.276v-.229h-.407v1.892h.412v-1.06c0-.313.135-.487.4-.487a.671.671,0,0,1,.257.048l.127-.4a.88.88,0,0,0-.293-.051l.008.007Zm-5.3.989a.956.956,0,0,0,1.009.989.986.986,0,0,0,.681-.225l-.2-.332a.822.822,0,0,1-.495.17.607.607,0,0,1,0-1.211.832.832,0,0,1,.495.17l.2-.332a.989.989,0,0,0-.681-.225.956.956,0,0,0-1.009.989Zm3.855,0v-.942h-.412v.229a.719.719,0,0,0-.593-.276.989.989,0,1,0,0,1.978.719.719,0,0,0,.593-.276v.229h.412Zm-1.532,0a.568.568,0,1,1,.155.429A.572.572,0,0,1,28.162,25.7ZM23.2,24.709a.989.989,0,0,0,.028,1.978,1.147,1.147,0,0,0,.785-.257l-.2-.305a.9.9,0,0,1-.55.2.524.524,0,0,1-.566-.463H24.1V25.7a.9.9,0,0,0-.9-.989Zm0,.368a.469.469,0,0,1,.479.458h-.989a.487.487,0,0,1,.5-.458Zm10.313.625V24h-.4v.989a.719.719,0,0,0-.593-.276.989.989,0,1,0,0,1.978.719.719,0,0,0,.593-.276v.229h.4V25.7Zm.687.671a.2.2,0,0,1,.137.053.184.184,0,0,1-.061.3.186.186,0,0,1-.076.016.2.2,0,0,1-.178-.115.186.186,0,0,1,.041-.206.2.2,0,0,1,.143-.053Zm0,.335a.14.14,0,0,0,.1-.044.143.143,0,0,0-.1-.241.148.148,0,0,0-.1.044.146.146,0,0,0,0,.2.131.131,0,0,0,.047.031.146.146,0,0,0,.063.012Zm.012-.236a.079.079,0,0,1,.052.016.049.049,0,0,1,.017.041.047.047,0,0,1-.014.036.069.069,0,0,1-.041.017l.058.065h-.046l-.054-.065h-.017v.065h-.038v-.175h.083Zm-.044.033v.048h.044a.045.045,0,0,0,.024,0,84.932,84.932,0,0,0,0-.036.042.042,0,0,0-.024,0Zm-2.177-.8a.568.568,0,1,1,.155.429.572.572,0,0,1-.155-.429Zm-13.9,0v-.945h-.412v.229a.719.719,0,0,0-.593-.276.989.989,0,1,0,0,1.978.719.719,0,0,0,.593-.276v.229h.412V25.7Zm-1.532,0a.561.561,0,1,1,.151.43.572.572,0,0,1-.151-.43Z" transform="translate(-3.482 -5.817)"/><g transform="translate(8.09 2.999)"><path class="d" d="M22.687,5.218h6.234v11.2H22.687Z" transform="translate(-14.277 -3.695)"/><path class="e" d="M19.929,10.249a7.113,7.113,0,0,1,2.721-5.6,7.124,7.124,0,1,0,0,11.2,7.113,7.113,0,0,1-2.721-5.6Z" transform="translate(-11.124 -3.123)"/><path class="f" d="M38.5,10.249a7.124,7.124,0,0,1-11.527,5.6,7.124,7.124,0,0,0,0-11.2,7.124,7.124,0,0,1,11.527,5.6Zm-.681,4.5v-.3h.093v-.062h-.236v.062h.1v.3h.041Zm.457,0v-.361h-.071l-.084.258-.083-.258h-.063v.361h.051v-.271l.078.235h.053l.078-.235v.273l.041,0Z" transform="translate(-15.446 -3.123)"/></g></svg>