<svg xmlns="http://www.w3.org/2000/svg" width="38.909" height="23.273" viewBox="0 0 38.909 23.273"><defs><style>.a{fill:#fff;}.a,.b,.c{fill-rule:evenodd;}.b{fill:#0079c1;}.c{fill:#00457c;}</style></defs><path class="a" d="M0,21.817a1.455,1.455,0,0,0,1.455,1.456h36a1.452,1.452,0,0,0,1.455-1.456V1.456A1.455,1.455,0,0,0,37.455,0h-36A1.452,1.452,0,0,0,0,1.456V21.817Z" transform="translate(0 0)"/><path class="b" d="M31.937,13.363c-.106.692-.639.692-1.153.692H30.49l.206-1.292a.161.161,0,0,1,.16-.135h.134c.351,0,.681,0,.852.2a.642.642,0,0,1,.095.538m-.224-1.807H29.771a.269.269,0,0,0-.266.226l-.785,4.945a.161.161,0,0,0,.16.185h1a.189.189,0,0,0,.186-.159l.223-1.4a.269.269,0,0,1,.266-.227h.614a1.99,1.99,0,0,0,2.209-1.833,1.476,1.476,0,0,0-.247-1.244,1.807,1.807,0,0,0-1.415-.493" transform="translate(-7.832 -3.152)"/><path class="c" d="M12.9,13.363c-.106.692-.639.692-1.153.692h-.293l.205-1.292a.161.161,0,0,1,.16-.135h.135c.351,0,.681,0,.852.2a.642.642,0,0,1,.095.538m-.224-1.807H10.733a.269.269,0,0,0-.266.226l-.785,4.945a.161.161,0,0,0,.16.185h.927a.269.269,0,0,0,.267-.225l.212-1.335a.269.269,0,0,1,.266-.227h.615a1.99,1.99,0,0,0,2.209-1.833,1.476,1.476,0,0,0-.247-1.244,1.809,1.809,0,0,0-1.415-.493m4.507,3.616a1.035,1.035,0,0,1-1.049.881.785.785,0,0,1-.624-.249.777.777,0,0,1-.145-.648,1.038,1.038,0,0,1,1.041-.889.734.734,0,0,1,.777.9m1.295-1.8h-.929a.161.161,0,0,0-.16.136l-.041.258-.065-.094a1.327,1.327,0,0,0-1.1-.387,2.132,2.132,0,0,0-2.074,1.857,1.728,1.728,0,0,0,.346,1.418,1.459,1.459,0,0,0,1.171.47,1.784,1.784,0,0,0,1.287-.528l-.041.257a.161.161,0,0,0,.16.185h.836a.269.269,0,0,0,.267-.225l.5-3.161a.161.161,0,0,0-.16-.186" transform="translate(-2.64 -3.152)"/><path class="b" d="M37.869,15.821a1.034,1.034,0,0,1-1.049.881.717.717,0,0,1-.77-.9,1.038,1.038,0,0,1,1.041-.889.734.734,0,0,1,.777.9m1.3-1.8h-.929a.161.161,0,0,0-.16.136l-.041.258-.065-.094a1.326,1.326,0,0,0-1.1-.387A2.133,2.133,0,0,0,34.8,15.794a1.733,1.733,0,0,0,.346,1.418,1.46,1.46,0,0,0,1.171.47,1.787,1.787,0,0,0,1.287-.528l-.042.257a.161.161,0,0,0,.16.185h.836a.269.269,0,0,0,.267-.225l.5-3.161a.161.161,0,0,0-.16-.186" transform="translate(-9.482 -3.801)"/><path class="c" d="M26.959,14.025h-.935a.269.269,0,0,0-.223.117l-1.289,1.887-.546-1.812a.27.27,0,0,0-.259-.191h-.919a.16.16,0,0,0-.153.212l1.028,3L22.7,18.594a.161.161,0,0,0,.132.254h.933a.273.273,0,0,0,.222-.116l3.107-4.455a.16.16,0,0,0-.133-.252" transform="translate(-6.171 -3.825)"/><path class="b" d="M42.02,11.692l-.8,5.036a.161.161,0,0,0,.16.185h.8a.269.269,0,0,0,.266-.226l.785-4.945a.161.161,0,0,0-.16-.185h-.9a.161.161,0,0,0-.16.136" transform="translate(-11.242 -3.152)"/></svg>