<svg xmlns="http://www.w3.org/2000/svg" width="39.545" height="23.545" viewBox="0 0 39.545 23.545"><defs><style>.a{fill:none;stroke:#e6e6e6;fill-rule:evenodd;}.b{fill:#fff;}.c{fill:#f7b600;}.d{fill:#1a1f71;}</style></defs><g transform="translate(0.136 0.136)"><path class="a" d="M.5,1.592V21.953a1.089,1.089,0,0,0,1.092,1.092H37.953a1.091,1.091,0,0,0,1.092-1.092V1.592A1.089,1.089,0,0,0,37.953.5H1.592A1.091,1.091,0,0,0,.5,1.592Z" transform="translate(-0.136 -0.136)"/><rect class="b" width="39.273" height="23.273" rx="2"/><path class="c" d="M.993,25.765H38.816v3.08a.727.727,0,0,1-.727.727H1.72a.727.727,0,0,1-.727-.727v-3.08Z" transform="translate(-0.271 -7.027)"/><path class="d" d="M1.72,1H38.089a.727.727,0,0,1,.727.727v3.1H.993v-3.1A.727.727,0,0,1,1.72,1ZM16.7,7.7l-3.409,8.127h-2.23l-1.673-6.5A.9.9,0,0,0,8.9,8.617a8.452,8.452,0,0,0-2.08-.686L6.859,7.7H10.44a.98.98,0,0,1,.964.836l.88,4.7L14.471,7.7H16.7Zm8.727,5.468c0-2.144-2.959-2.273-2.938-3.216,0-.3.279-.6.9-.686a4.007,4.007,0,0,1,2.079.364l.364-1.715a5.485,5.485,0,0,0-1.972-.364c-2.08,0-3.538,1.115-3.559,2.68-.022,1.18,1.05,1.823,1.844,2.209s1.094.665,1.094,1.008c0,.536-.665.793-1.265.793a4.314,4.314,0,0,1-2.165-.514l-.386,1.78a5.977,5.977,0,0,0,2.337.429c2.209.022,3.646-1.072,3.667-2.767Zm5.489,2.659h1.951L31.174,7.7h-1.8a.959.959,0,0,0-.9.6L25.3,15.822h2.209l.429-1.222h2.7l.279,1.222Zm-2.359-2.873L29.674,9.9l.643,3.045ZM19.7,7.7l-1.737,8.127h-2.1L17.6,7.7h2.1Z" transform="translate(-0.271 -0.273)"/></g></svg>