<svg xmlns="http://www.w3.org/2000/svg" width="127.996" height="128" viewBox="0 0 127.996 128"><defs><style>.a{fill:#f9b233;}.b{fill:#fff;}.c{fill:#ef3c3c;}.d{fill:#fa9600;}.e{fill:#dc333d;}</style></defs><g transform="translate(-0.009)"><path class="a" d="M178.006,103.5v22a7.5,7.5,0,0,1-7.5,7.5h-63a7.5,7.5,0,0,1-7.5-7.5l.268-108a7.276,7.276,0,0,1,7.232-7.5h63a7.5,7.5,0,0,1,7.5,7.5v86Z" transform="translate(-74.998 -7.5)"/><path class="b" d="M100.007,162.477H178V74H100.275Z" transform="translate(-74.998 -55.499)"/><path class="b" d="M30.161,159.5h34.6a3,3,0,0,0,3-3V124a3,3,0,0,0-3-3H13.008a3,3,0,0,0-3,3v32.5a3,3,0,0,0,3,3H30.161Z" transform="translate(-7.499 -90.748)"/><circle class="c" cx="9.625" cy="9.625" r="9.625" transform="translate(27.761 39.875)"/><circle class="d" cx="9.625" cy="9.625" r="9.625" transform="translate(15.757 39.875)"/><path class="b" d="M281.031,335h55.24l-7.793,34h-39.7Z" transform="translate(-210.766 -251.249)"/><g transform="translate(75.529 113)"><path class="e" d="M308.337,464.5h0a6.25,6.25,0,0,1-6.25-6.25h0a6.25,6.25,0,0,1,6.25-6.25h0a6.25,6.25,0,0,1,6.25,6.25h0A6.25,6.25,0,0,1,308.337,464.5Z" transform="translate(-302.087 -452)"/><path class="e" d="M407.6,464.5h0a6.25,6.25,0,0,1-6.25-6.25h0A6.25,6.25,0,0,1,407.6,452h0a6.25,6.25,0,0,1,6.25,6.25h0A6.25,6.25,0,0,1,407.6,464.5Z" transform="translate(-376.533 -452)"/></g><path d="M212.505,37h18a2.5,2.5,0,1,0,0-5h-18a2.5,2.5,0,1,0,0,5Z" transform="translate(-157.497 -23.999)"/><path d="M248.505,453.754a2.5,2.5,0,1,0,1.768.733A2.519,2.519,0,0,0,248.505,453.754Z" transform="translate(-184.497 -340.315)"/><path d="M77.451,150.373a12.088,12.088,0,0,0-6.028,1.6,12.166,12.166,0,1,0,0,21.123,12.164,12.164,0,1,0,6.028-22.728Zm-6.028,16.035a7.141,7.141,0,0,1,0-7.737,7.141,7.141,0,0,1,0,7.737Zm-13.195-3.869a7.163,7.163,0,0,1,9.191-6.874,12.133,12.133,0,0,0,0,13.747,7.163,7.163,0,0,1-9.191-6.874Zm19.223,7.167a7.143,7.143,0,0,1-2.024-.293,12.134,12.134,0,0,0,0-13.747,7.166,7.166,0,1,1,2.024,14.04Z" transform="translate(-39.914 -112.78)"/><path d="M203.506,388.664a2.5,2.5,0,1,0-1.767-.733A2.519,2.519,0,0,0,203.506,388.664Z" transform="translate(-150.748 -287.748)"/><path d="M148.106,348.9a2.508,2.508,0,1,0-.73-1.768A2.521,2.521,0,0,0,148.106,348.9Z" transform="translate(-110.525 -258.476)"/><path d="M293.088,110h14.854v25.328a2.5,2.5,0,0,0,5,0V107.5a2.5,2.5,0,0,0-2.5-2.5H293.088a2.5,2.5,0,0,0,0,5Z" transform="translate(-217.934 -78.752)"/><path d="M127.46,82.192a2.5,2.5,0,0,0-1.955-.942h-20V10a10.011,10.011,0,0,0-10-10h-63a10.011,10.011,0,0,0-10,10V28.01H5.53A5.527,5.527,0,0,0,.009,33.531V65.989A5.527,5.527,0,0,0,5.53,71.51H22.509V118a10.011,10.011,0,0,0,10,10h74.013l.073,0a8.761,8.761,0,0,0,8.691-7.751h2.427a2.5,2.5,0,0,0,2.437-1.942l7.793-34A2.5,2.5,0,0,0,127.46,82.192ZM27.509,10a5.006,5.006,0,0,1,5-5h63a5.006,5.006,0,0,1,5,5v6h-73Zm0,11h73V81.25H72.273l-1.167-5.29A2.5,2.5,0,0,0,68.664,74H61.326a2.5,2.5,0,1,0,0,5h5.33l1.58,7.159H48.091a2.5,2.5,0,0,0,0,5h21.03c.073,0,.144,0,.215-.011l1.052,4.769H62.424a2.5,2.5,0,0,0,0,5h9.067l.79,3.578H27.509V71.51H57.487a5.527,5.527,0,0,0,5.521-5.521V33.531a5.527,5.527,0,0,0-5.521-5.521H27.509ZM5.53,66.51a.521.521,0,0,1-.521-.521V33.531a.522.522,0,0,1,.521-.521H57.487a.521.521,0,0,1,.521.521V65.989a.522.522,0,0,1-.521.521ZM73.874,123H32.509a5.006,5.006,0,0,1-5-5v-8.505H73.385l1.09,4.94v0a8.727,8.727,0,0,0-.6,8.561Zm7.937,0h-.066a3.751,3.751,0,1,1,.066,0Zm7.87,0a8.685,8.685,0,0,0,.789-2.749H97.9A8.678,8.678,0,0,0,98.692,123Zm16.929,0h-.051a3.7,3.7,0,1,1,.051,0Zm12.434-22.255H94.225a2.5,2.5,0,1,0,0,5H117.9l-2.179,9.505h-1.349a8.743,8.743,0,0,0-15.556,0H89.557a8.741,8.741,0,0,0-10.717-4.24L73.377,86.25h48.991Z"/></g></svg>