<svg xmlns="http://www.w3.org/2000/svg" width="128" height="104.003" viewBox="0 0 128 104.003"><defs><style>.a{fill:#fff;}.a,.b,.c{fill-rule:evenodd;}.b{fill:#f9b233;}.c{fill:#dc333d;}</style></defs><g transform="translate(0 -47.994)"><g transform="translate(88.56 90.496)"><path class="a" d="M380.268,218H354.241v18.375H387.56Z" transform="translate(-354.241 -218.003)"/></g><g transform="translate(75.493 78.79)"><path class="a" d="M301.973,171.177v52.4h12a11.168,11.168,0,0,1,17.205,0h17.184V201.259H315.04V182.884h26.027l-4.641-11.707H301.973Z" transform="translate(-301.973 -171.177)"/></g><g transform="translate(11.683 66.481)"><path class="b" d="M99.013,136.695a30.731,30.731,0,0,1-52.282,21.9v28.048H60.478a11.175,11.175,0,0,1,17.212,0h32.851v-52.4h12.1V121.941H95.25a30.57,30.57,0,0,1,3.763,14.754Z" transform="translate(-46.731 -121.941)"/></g><g transform="translate(2.506 50.501)"><path class="a" d="M61.315,88.756A20.56,20.56,0,1,1,40.758,68.192,20.559,20.559,0,0,1,61.315,88.756ZM40.758,58.023A30.708,30.708,0,1,0,67.72,74,30.726,30.726,0,0,0,40.758,58.023Z" transform="translate(-10.025 -58.023)"/></g><g transform="translate(12.675 60.67)"><path class="a" d="M71.263,98.7A20.561,20.561,0,1,0,91.82,119.263,20.562,20.562,0,0,0,71.263,98.7Z" transform="translate(-50.699 -98.698)"/></g><g transform="translate(8.062 131.186)"><path class="a" d="M49.615,380.762H35.868a3.632,3.632,0,0,0-3.621,3.621v3.253a3.632,3.632,0,0,0,3.621,3.621H47.56a11.178,11.178,0,0,1,2.055-10.495Z" transform="translate(-32.247 -380.762)"/></g><g transform="translate(22.858 127.14)"><path class="c" d="M102.606,364.577a11.181,11.181,0,1,0,8.61,4.046A11.155,11.155,0,0,0,102.606,364.577Z" transform="translate(-91.431 -364.577)"/></g><g transform="translate(42.642 131.186)"><path class="a" d="M203.419,380.762H170.568a11.178,11.178,0,0,1,2.055,10.495h40.738a11.178,11.178,0,0,1,2.055-10.495Z" transform="translate(-170.568 -380.762)"/></g><g transform="translate(84.918 127.14)"><path class="c" d="M342.244,368.623a11.168,11.168,0,1,0,8.6-4.046A11.153,11.153,0,0,0,342.244,368.623Z" transform="translate(-339.672 -364.577)"/></g><g transform="translate(104.695 131.186)"><path class="a" d="M435.965,380.762H418.781a11.162,11.162,0,0,1,2.062,10.495h15.122a3.632,3.632,0,0,0,3.621-3.621v-3.253A3.632,3.632,0,0,0,435.965,380.762Z" transform="translate(-418.781 -380.762)"/></g><g transform="translate(93.596 135.815)"><path d="M376.888,404.277a2.5,2.5,0,0,1-.007-5h.007a2.5,2.5,0,0,1,0,5Z" transform="translate(-374.385 -399.277)"/></g><g transform="translate(0 47.994)"><path d="M128.648,399.277h-.007a2.5,2.5,0,1,0,.007,0Z" transform="translate(-94.609 -311.456)"/><path d="M124.379,129.222V108.871a2.524,2.524,0,0,0-.176-.922L112.27,77.868a2.5,2.5,0,0,0-2.324-1.578H90.089V66.481a2.5,2.5,0,0,0-2.5-2.5H61.651a33.475,33.475,0,0,0-4.918-6.248,33.221,33.221,0,0,0-36.8-6.957,2.5,2.5,0,1,0,2,4.581A28.226,28.226,0,1,1,7.349,69.945a2.5,2.5,0,1,0-4.584-2,33.224,33.224,0,0,0,6.418,36.2v25.07a6.129,6.129,0,0,0-3.621,5.585v3.253a6.128,6.128,0,0,0,6.121,6.121h10a13.673,13.673,0,0,0,24.71,0h37.35a13.673,13.673,0,0,0,24.71,0h13.429A6.128,6.128,0,0,0,128,138.06v-3.253a6.128,6.128,0,0,0-3.621-5.585ZM112.892,93l5.306,13.375H91.06V93ZM108.248,81.29,110.909,88H88.56a2.5,2.5,0,0,0-2.5,2.5v18.375a2.5,2.5,0,0,0,2.5,2.5h30.819v6.161h-3.4a2.5,2.5,0,1,0,0,5h3.4v6.154H105.8a13.655,13.655,0,0,0-19.4,0h-8.4V81.29ZM20.388,139.181H11.683a1.136,1.136,0,0,1-1.121-1.121v-3.252a1.136,1.136,0,0,1,1.121-1.121h9.484a13.6,13.6,0,0,0-.809,4.629C20.358,138.606,20.37,138.894,20.388,139.181ZM34.039,147a8.679,8.679,0,1,1,8.675-8.682A8.692,8.692,0,0,1,34.039,147Zm9.7-18.311a13.655,13.655,0,0,0-19.4,0H14.183V108.468A33.255,33.255,0,0,0,64.143,68.98H85.089V76.29h-9.6a2.5,2.5,0,0,0-2.5,2.5v49.9H43.739Zm3.945,10.5c.018-.287.03-.575.03-.866a13.61,13.61,0,0,0-.808-4.629h36.32a13.61,13.61,0,0,0-.808,4.629c0,.291.012.58.03.866ZM96.093,147a8.679,8.679,0,1,1,6.655-14.246l.054.064A8.674,8.674,0,0,1,96.093,147ZM123,138.06a1.136,1.136,0,0,1-1.121,1.121H109.744c.018-.287.03-.575.03-.866a13.6,13.6,0,0,0-.809-4.629h12.913A1.136,1.136,0,0,1,123,134.807v3.253Z" transform="translate(0 -47.994)"/><path d="M63.764,134.821A23.061,23.061,0,1,0,40.7,111.764a23.083,23.083,0,0,0,23.064,23.057Zm0-41.122A18.061,18.061,0,1,1,45.7,111.764,18.081,18.081,0,0,1,63.764,93.7Z" transform="translate(-30.525 -78.523)"/><path d="M125.454,144.748h7.221a2.5,2.5,0,1,0,0-5h-4.721v-7.9a2.5,2.5,0,0,0-5,0v10.4A2.5,2.5,0,0,0,125.454,144.748Z" transform="translate(-92.215 -109.007)"/><path d="M38.494,89.045a2.493,2.493,0,0,0,1.768-.732l.007-.007a2.5,2.5,0,1,0-1.775.739Z" transform="translate(-26.996 -75.031)"/></g></g></svg>