<svg xmlns="http://www.w3.org/2000/svg" width="44.131" height="44.131" viewBox="0 0 44.131 44.131"><defs><style>.a{fill:#fff;}</style></defs><path class="a" d="M22.066,44.131a22.227,22.227,0,0,1-4.447-.448,21.945,21.945,0,0,1-7.89-3.32,22.131,22.131,0,0,1-7.995-9.708A21.954,21.954,0,0,1,.448,26.512a22.279,22.279,0,0,1,0-8.894,21.945,21.945,0,0,1,3.32-7.89,22.131,22.131,0,0,1,9.708-7.995A21.955,21.955,0,0,1,17.619.448a22.279,22.279,0,0,1,8.894,0,21.945,21.945,0,0,1,7.89,3.32A22.131,22.131,0,0,1,42.4,13.477a21.955,21.955,0,0,1,1.286,4.142,22.279,22.279,0,0,1,0,8.894,21.945,21.945,0,0,1-3.32,7.89A22.132,22.132,0,0,1,30.654,42.4a21.954,21.954,0,0,1-4.142,1.286A22.226,22.226,0,0,1,22.066,44.131ZM9.874,31.907h0a14.925,14.925,0,0,0,8.084,2.37A15.2,15.2,0,0,0,24.4,32.912a14.1,14.1,0,0,0,2.574-1.546,14.542,14.542,0,0,0,2.13-1.979,15.311,15.311,0,0,0,1.675-2.306,15.855,15.855,0,0,0,1.21-2.526,15.688,15.688,0,0,0,.734-2.639,14.588,14.588,0,0,0,.247-2.646c0-.216-.005-.44-.015-.682a10.634,10.634,0,0,0,1.437-1.247,10.791,10.791,0,0,0,1.194-1.482,10.534,10.534,0,0,1-3.029.83,5.3,5.3,0,0,0,1.42-1.242,5.251,5.251,0,0,0,.9-1.675,10.576,10.576,0,0,1-3.35,1.279,5.268,5.268,0,0,0-3.851-1.665,5.249,5.249,0,0,0-2.949.9,5.29,5.29,0,0,0-1.911,2.321,5.318,5.318,0,0,0-.278,3.255,15.028,15.028,0,0,1-3.182-.506,14.936,14.936,0,0,1-2.922-1.136,15.057,15.057,0,0,1-4.767-3.87,5.236,5.236,0,0,0-.528,1.256,5.282,5.282,0,0,0,2.159,5.786,5.252,5.252,0,0,1-2.389-.661V20.8a5.276,5.276,0,0,0,4.231,5.17,5.256,5.256,0,0,1-2.381.092,5.273,5.273,0,0,0,4.928,3.662,10.672,10.672,0,0,1-7.809,2.184Z"/></svg>