<svg xmlns="http://www.w3.org/2000/svg" width="44.131" height="42.708" viewBox="0 0 44.131 42.708"><defs><style>.a{fill:#fff;}</style></defs><path class="a" d="M22.777,42.708H21.353a21.36,21.36,0,0,1-8.312-41.03A21.218,21.218,0,0,1,21.353,0h1.424a21.36,21.36,0,0,1,8.312,41.03A21.22,21.22,0,0,1,22.777,42.708ZM15.1,17.522v4.454h3.974V33.407h4.754V21.976h3.965l.595-4.454H23.825V14.678c0-1.3.388-2.169,2.281-2.169h2.437V8.526a33.819,33.819,0,0,0-3.424-.175h-.127a6.038,6.038,0,0,0-4.278,1.514,5.865,5.865,0,0,0-1.643,4.374v3.283Z" transform="translate(0 0)"/></svg>